<svg viewBox="0 0 100 100" xml:space="preserve" xmlns="http://www.w3.org/2000/svg" enable-background="new 0 0 100 100"><path d="M20 29c-6.1 0-11 4.9-11 11s4.9 11 11 11 11-4.9 11-11-4.9-11-11-11zM47.5 24C40.1 24 34 30.1 34 37.5S40.1 51 47.5 51 61 44.9 61 37.5 54.9 24 47.5 24zM80 51c8.8 0 16-7.2 16-16s-7.2-16-16-16-16 7.2-16 16 7.2 16 16 16zM20 54c-6.1 0-11 4.9-11 11v15c0 .6.4 1 1 1h20c.6 0 1-.4 1-1V65c0-6.1-4.9-11-11-11zM47.5 54C40.1 54 34 60.1 34 67.5V80c0 .6.4 1 1 1h25c.6 0 1-.4 1-1V67.5C61 60.1 54.9 54 47.5 54zM80 54c-8.8 0-16 7.2-16 16v10c0 .6.4 1 1 1h30c.6 0 1-.4 1-1V70c0-8.8-7.2-16-16-16z" fill="#ffffff" class="fill-000000"></path></svg>