<svg width="100" height="100" xmlns="http://www.w3.org/2000/svg">

 <g>
  <title>background</title>
  <rect fill="#214fc6" id="canvas_background" height="102" width="102" y="-1" x="-1"/>
 </g>
 <g>
  <title>Layer 1</title>
  <path fill="#ffffff" id="svg_2" d="m20,29c-6.1,0 -11,4.9 -11,11s4.9,11 11,11s11,-4.9 11,-11s-4.9,-11 -11,-11z"/>
  <path fill="#ffffff" id="svg_3" d="m47.5,24c-7.4,0 -13.5,6.1 -13.5,13.5s6.1,13.5 13.5,13.5s13.5,-6.1 13.5,-13.5s-6.1,-13.5 -13.5,-13.5z"/>
  <path fill="#ffffff" id="svg_4" d="m80,51c8.8,0 16,-7.2 16,-16s-7.2,-16 -16,-16s-16,7.2 -16,16s7.2,16 16,16z"/>
  <path fill="#ffffff" id="svg_5" d="m20,54c-6.1,0 -11,4.9 -11,11l0,15c0,0.6 0.4,1 1,1l20,0c0.6,0 1,-0.4 1,-1l0,-15c0,-6.1 -4.9,-11 -11,-11z"/>
  <path fill="#ffffff" id="svg_6" d="m47.33378,54c-7.4,0 -13.5,6.1 -13.5,13.5l0,12.5c0,0.6 0.4,1 1,1l25,0c0.6,0 1,-0.4 1,-1l0,-12.5c0,-7.4 -6.1,-13.5 -13.5,-13.5z"/>
  <path fill="#ffffff" id="svg_7" d="m80,54c-8.8,0 -16,7.2 -16,16l0,10c0,0.6 0.4,1 1,1l30,0c0.6,0 1,-0.4 1,-1l0,-10c0,-8.8 -7.2,-16 -16,-16z"/>
 </g>
</svg>